<svg width="66" height="49" viewBox="0 0 66 49" fill="none" xmlns="http://www.w3.org/2000/svg">
<path d="M57.608 5.79068C58.7217 5.79068 59.6329 6.55908 59.6329 7.49825V41.6283L59.0001 40.9346L41.7888 22.1513C41.2194 21.5217 40.3208 21.1588 39.3843 21.1588C38.4478 21.1588 37.562 21.5217 36.9798 22.1513L26.4759 33.6134L22.616 29.0563C22.0465 28.384 21.1353 27.9891 20.1482 27.9891C19.1611 27.9891 18.2499 28.384 17.6804 29.067L7.55616 41.02L6.98667 41.6817V7.49825C6.98667 6.55908 7.89786 5.79068 9.01153 5.79068H57.608ZM9.01153 0.667969C4.54419 0.667969 0.912109 3.73092 0.912109 7.49825V41.6496C0.912109 45.417 4.54419 48.4799 9.01153 48.4799H57.608C62.0754 48.4799 65.7074 45.417 65.7074 41.6496V7.49825C65.7074 3.73092 62.0754 0.667969 57.608 0.667969H9.01153ZM19.1358 21.1588C19.9335 21.1588 20.7234 21.0263 21.4604 20.7689C22.1974 20.5114 22.8671 20.1341 23.4312 19.6584C23.9952 19.1827 24.4427 18.618 24.748 17.9965C25.0532 17.375 25.2104 16.7088 25.2104 16.0361C25.2104 15.3634 25.0532 14.6972 24.748 14.0757C24.4427 13.4542 23.9952 12.8895 23.4312 12.4138C22.8671 11.9381 22.1974 11.5608 21.4604 11.3033C20.7234 11.0459 19.9335 10.9134 19.1358 10.9134C18.3381 10.9134 17.5482 11.0459 16.8112 11.3033C16.0742 11.5608 15.4045 11.9381 14.8404 12.4138C14.2764 12.8895 13.8289 13.4542 13.5236 14.0757C13.2184 14.6972 13.0612 15.3634 13.0612 16.0361C13.0612 16.7088 13.2184 17.375 13.5236 17.9965C13.8289 18.618 14.2764 19.1827 14.8404 19.6584C15.4045 20.1341 16.0742 20.5114 16.8112 20.7689C17.5482 21.0263 18.3381 21.1588 19.1358 21.1588Z" fill="white"/>
</svg>
